# xmcd
#
# Track frame offsets:
#	150
#	9522
#	19805
#	31267
#	39245
#	53124
#	60836
#	69097
#	79513
#	89107
#	102138
#	113894
#
# Disc length: 1583 seconds
#
# Revision: 0
# Processed by: cddbd v1.5.2PL0 Copyright (c) Steve Scherf et al.
# Submitted via: EasyCDDAExtractor 12.0.4.1
#
DISCID=84062d0c
DTITLE=Anabel and The Rock - A - Bells - The Big A
DYEAR=2006
DGENRE=Rockabilly
TTITLE0=Four Times Four
TTITLE1=I Never Lie
TTITLE2=Sabes Bien
TTITLE3=I Try
TTITLE4=Don't Ever Leave Me
TTITLE5=Whistle Bait
TTITLE6=Move A Little Closer
TTITLE7=Tiger
TTITLE8=Feeling In My Heart
TTITLE9=Summertime
TTITLE10=Here Comes That Feeling
TTITLE11=Outro Radio Cut
EXTD=
EXTT0=
EXTT1=
EXTT2=
EXTT3=
EXTT4=
EXTT5=
EXTT6=
EXTT7=
EXTT8=
EXTT9=
EXTT10=
EXTT11=
PLAYORDER=
